<?xml version="1.0" encoding="UTF-8"?>
<svg width="512" height="512" viewBox="0 0 512 512" fill="none" xmlns="http://www.w3.org/2000/svg">
    <!-- Background circle -->
    <circle cx="256" cy="256" r="256" fill="white"/>
    
    <!-- C letter -->
    <path d="M120 160C120 137.909 137.909 120 160 120H240C262.091 120 280 137.909 280 160V176C280 184.837 272.837 192 264 192C255.163 192 248 184.837 248 176V160C248 155.582 244.418 152 240 152H160C155.582 152 152 155.582 152 160V352C152 356.418 155.582 360 160 360H240C244.418 360 248 356.418 248 352V336C248 327.163 255.163 320 264 320C272.837 320 280 327.163 280 336V352C280 374.091 262.091 392 240 392H160C137.909 392 120 374.091 120 352V160Z" fill="#0066CC"/>
    
    <!-- D letter -->
    <path d="M312 120H392C414.091 120 432 137.909 432 160V352C432 374.091 414.091 392 392 392H312C289.909 392 272 374.091 272 352V160C272 137.909 289.909 120 312 120ZM312 152C307.582 152 304 155.582 304 160V352C304 356.418 307.582 360 312 360H392C396.418 360 400 356.418 400 352V160C400 155.582 396.418 152 392 152H312Z" fill="#00B4B4"/>
</svg> 